<svg width="79" height="14" viewBox="0 0 79 14" fill="none" xmlns="http://www.w3.org/2000/svg">
<mask id="path-1-outside-1_2311_3" maskUnits="userSpaceOnUse" x="0" y="0" width="79" height="14" fill="black">
<rect fill="white" width="79" height="14"/>
<path d="M1.05682 11V2.27273H2.11364V10.0625H6.17045V11H1.05682ZM8.86364 2.27273V11H7.80682V2.27273H8.86364ZM15.7553 4.45455C15.7042 4.02273 15.4968 3.6875 15.1332 3.44886C14.7695 3.21023 14.3235 3.09091 13.7951 3.09091C13.4087 3.09091 13.0707 3.15341 12.7809 3.27841C12.494 3.40341 12.2695 3.57528 12.1076 3.79403C11.9485 4.01278 11.869 4.26136 11.869 4.53977C11.869 4.77273 11.9244 4.97301 12.0352 5.14062C12.1488 5.3054 12.2937 5.44318 12.4698 5.55398C12.646 5.66193 12.8306 5.75142 13.0238 5.82244C13.217 5.89062 13.3945 5.94602 13.5565 5.98864L14.4428 6.22727C14.6701 6.28693 14.9229 6.36932 15.2013 6.47443C15.4826 6.57955 15.7511 6.72301 16.0067 6.90483C16.2653 7.08381 16.4783 7.31392 16.646 7.59517C16.8136 7.87642 16.8974 8.22159 16.8974 8.63068C16.8974 9.10227 16.7738 9.52841 16.5266 9.90909C16.2823 10.2898 15.9244 10.5923 15.4528 10.8168C14.984 11.0412 14.4144 11.1534 13.744 11.1534C13.119 11.1534 12.5778 11.0526 12.1204 10.8509C11.6658 10.6491 11.3079 10.3679 11.0465 10.0071C10.788 9.64631 10.6417 9.22727 10.6076 8.75H11.6985C11.7269 9.07955 11.8377 9.35227 12.0309 9.56818C12.2269 9.78125 12.4741 9.94034 12.7724 10.0455C13.0735 10.1477 13.3974 10.1989 13.744 10.1989C14.1474 10.1989 14.5096 10.1335 14.8306 10.0028C15.1516 9.86932 15.4059 9.68466 15.5934 9.44886C15.7809 9.21023 15.8746 8.93182 15.8746 8.61364C15.8746 8.32386 15.7937 8.08807 15.6317 7.90625C15.4698 7.72443 15.2567 7.5767 14.9925 7.46307C14.7283 7.34943 14.4428 7.25 14.136 7.16477L13.0621 6.85795C12.3803 6.66193 11.8406 6.3821 11.4428 6.01847C11.0451 5.65483 10.8462 5.17898 10.8462 4.59091C10.8462 4.10227 10.9783 3.67614 11.2425 3.3125C11.5096 2.94602 11.8675 2.66193 12.3164 2.46023C12.7681 2.25568 13.2724 2.15341 13.8292 2.15341C14.3917 2.15341 14.8917 2.25426 15.3292 2.45597C15.7667 2.65483 16.1133 2.92756 16.369 3.27415C16.6275 3.62074 16.7638 4.0142 16.7781 4.45455H15.7553ZM18.9929 11H17.8849L21.0895 2.27273H22.1804L25.3849 11H24.277L21.669 3.65341H21.6009L18.9929 11ZM19.402 7.59091H23.8679V8.52841H19.402V7.59091ZM26.7443 11V2.27273H29.6932C30.375 2.27273 30.9347 2.3892 31.3722 2.62216C31.8097 2.85227 32.1335 3.16903 32.3438 3.57244C32.554 3.97585 32.6591 4.43466 32.6591 4.94886C32.6591 5.46307 32.554 5.91903 32.3438 6.31676C32.1335 6.71449 31.8111 7.02699 31.3764 7.25426C30.9418 7.47869 30.3864 7.59091 29.7102 7.59091H27.3239V6.63636H29.6761C30.142 6.63636 30.517 6.56818 30.8011 6.43182C31.0881 6.29545 31.2955 6.10227 31.4233 5.85227C31.554 5.59943 31.6193 5.2983 31.6193 4.94886C31.6193 4.59943 31.554 4.29403 31.4233 4.03267C31.2926 3.77131 31.0838 3.5696 30.7969 3.42756C30.5099 3.28267 30.1307 3.21023 29.6591 3.21023H27.8011V11H26.7443ZM30.8523 7.07955L33 11H31.7727L29.6591 7.07955H30.8523ZM34.4201 11V2.27273H37.4712C38.0792 2.27273 38.5806 2.37784 38.9755 2.58807C39.3704 2.79545 39.6644 3.07528 39.8576 3.42756C40.0508 3.77699 40.1474 4.16477 40.1474 4.59091C40.1474 4.96591 40.0806 5.27557 39.9471 5.51989C39.8164 5.7642 39.6431 5.95739 39.4272 6.09943C39.2141 6.24148 38.9826 6.34659 38.7326 6.41477V6.5C38.9996 6.51705 39.2681 6.6108 39.538 6.78125C39.8079 6.9517 40.0337 7.19602 40.2156 7.5142C40.3974 7.83239 40.4883 8.22159 40.4883 8.68182C40.4883 9.11932 40.3888 9.51278 40.19 9.86222C39.9911 10.2116 39.6772 10.4886 39.2482 10.6932C38.8192 10.8977 38.261 11 37.5735 11H34.4201ZM35.4769 10.0625H37.5735C38.2638 10.0625 38.7539 9.92898 39.0437 9.66193C39.3363 9.39205 39.4826 9.06534 39.4826 8.68182C39.4826 8.38636 39.4073 8.11364 39.2567 7.86364C39.1062 7.6108 38.8917 7.40909 38.6133 7.25852C38.3349 7.10511 38.0053 7.02841 37.6246 7.02841H35.4769V10.0625ZM35.4769 6.10795H37.4371C37.7553 6.10795 38.0423 6.04545 38.2979 5.92045C38.5565 5.79545 38.761 5.61932 38.9116 5.39205C39.065 5.16477 39.1417 4.89773 39.1417 4.59091C39.1417 4.20739 39.0082 3.8821 38.7411 3.61506C38.4741 3.34517 38.0508 3.21023 37.4712 3.21023H35.4769V6.10795ZM49.2475 5H48.1907C48.1282 4.69602 48.0188 4.42898 47.8626 4.19886C47.7092 3.96875 47.5217 3.77557 47.3001 3.61932C47.0813 3.46023 46.8384 3.34091 46.5714 3.26136C46.3043 3.18182 46.0259 3.14205 45.7362 3.14205C45.2077 3.14205 44.729 3.27557 44.3001 3.54261C43.8739 3.80966 43.5344 4.20312 43.2816 4.72301C43.0316 5.2429 42.9066 5.88068 42.9066 6.63636C42.9066 7.39205 43.0316 8.02983 43.2816 8.54972C43.5344 9.0696 43.8739 9.46307 44.3001 9.73011C44.729 9.99716 45.2077 10.1307 45.7362 10.1307C46.0259 10.1307 46.3043 10.0909 46.5714 10.0114C46.8384 9.93182 47.0813 9.81392 47.3001 9.65767C47.5217 9.49858 47.7092 9.30398 47.8626 9.07386C48.0188 8.84091 48.1282 8.57386 48.1907 8.27273H49.2475C49.168 8.71875 49.0231 9.1179 48.8129 9.47017C48.6026 9.82244 48.3413 10.1222 48.0288 10.3693C47.7163 10.6136 47.3654 10.7997 46.9762 10.9276C46.5898 11.0554 46.1765 11.1193 45.7362 11.1193C44.9918 11.1193 44.3299 10.9375 43.7504 10.5739C43.1708 10.2102 42.7148 9.69318 42.3825 9.02273C42.0501 8.35227 41.8839 7.55682 41.8839 6.63636C41.8839 5.71591 42.0501 4.92045 42.3825 4.25C42.7148 3.57955 43.1708 3.0625 43.7504 2.69886C44.3299 2.33523 44.9918 2.15341 45.7362 2.15341C46.1765 2.15341 46.5898 2.21733 46.9762 2.34517C47.3654 2.47301 47.7163 2.66051 48.0288 2.90767C48.3413 3.15199 48.6026 3.45028 48.8129 3.80256C49.0231 4.15199 49.168 4.55114 49.2475 5ZM58.3189 6.63636C58.3189 7.55682 58.1527 8.35227 57.8203 9.02273C57.4879 9.69318 57.032 10.2102 56.4524 10.5739C55.8729 10.9375 55.2109 11.1193 54.4666 11.1193C53.7223 11.1193 53.0604 10.9375 52.4808 10.5739C51.9013 10.2102 51.4453 9.69318 51.1129 9.02273C50.7805 8.35227 50.6143 7.55682 50.6143 6.63636C50.6143 5.71591 50.7805 4.92045 51.1129 4.25C51.4453 3.57955 51.9013 3.0625 52.4808 2.69886C53.0604 2.33523 53.7223 2.15341 54.4666 2.15341C55.2109 2.15341 55.8729 2.33523 56.4524 2.69886C57.032 3.0625 57.4879 3.57955 57.8203 4.25C58.1527 4.92045 58.3189 5.71591 58.3189 6.63636ZM57.2962 6.63636C57.2962 5.88068 57.1697 5.2429 56.9169 4.72301C56.6669 4.20312 56.3274 3.80966 55.8984 3.54261C55.4723 3.27557 54.995 3.14205 54.4666 3.14205C53.9382 3.14205 53.4595 3.27557 53.0305 3.54261C52.6044 3.80966 52.2649 4.20312 52.0121 4.72301C51.7621 5.2429 51.6371 5.88068 51.6371 6.63636C51.6371 7.39205 51.7621 8.02983 52.0121 8.54972C52.2649 9.0696 52.6044 9.46307 53.0305 9.73011C53.4595 9.99716 53.9382 10.1307 54.4666 10.1307C54.995 10.1307 55.4723 9.99716 55.8984 9.73011C56.3274 9.46307 56.6669 9.0696 56.9169 8.54972C57.1697 8.02983 57.2962 7.39205 57.2962 6.63636Z"/>
<path d="M59.4822 6.65341V6.125C59.9567 6.125 60.2876 6.02557 60.4751 5.8267C60.6655 5.62784 60.7607 5.29545 60.7607 4.82955V3.46591C60.7607 3.07386 60.7976 2.73437 60.8714 2.44744C60.9482 2.16051 61.0717 1.9233 61.2422 1.7358C61.4126 1.5483 61.6399 1.40909 61.924 1.31818C62.2081 1.22727 62.5589 1.18182 62.9766 1.18182V2.01705C62.647 2.01705 62.3871 2.06818 62.1967 2.17045C62.0092 2.27273 61.8757 2.43182 61.7962 2.64773C61.7195 2.8608 61.6811 3.13352 61.6811 3.46591V5.17045C61.6811 5.39205 61.6513 5.59375 61.5916 5.77557C61.5348 5.95739 61.4283 6.11364 61.272 6.24432C61.1158 6.375 60.8928 6.47585 60.603 6.54688C60.3161 6.6179 59.9425 6.65341 59.4822 6.65341ZM62.9766 12.0909C62.5589 12.0909 62.2081 12.0455 61.924 11.9545C61.6399 11.8636 61.4126 11.7244 61.2422 11.5369C61.0717 11.3494 60.9482 11.1122 60.8714 10.8253C60.7976 10.5384 60.7607 10.1989 60.7607 9.80682V8.44318C60.7607 7.97727 60.6655 7.64489 60.4751 7.44602C60.2876 7.24716 59.9567 7.14773 59.4822 7.14773V6.61932C59.9425 6.61932 60.3161 6.65483 60.603 6.72585C60.8928 6.79687 61.1158 6.89773 61.272 7.02841C61.4283 7.15909 61.5348 7.31534 61.5916 7.49716C61.6513 7.67898 61.6811 7.88068 61.6811 8.10227V9.80682C61.6811 10.1392 61.7195 10.4119 61.7962 10.625C61.8757 10.8381 62.0092 10.9957 62.1967 11.098C62.3871 11.2031 62.647 11.2557 62.9766 11.2557V12.0909ZM59.4822 7.14773V6.125H60.4879V7.14773H59.4822ZM69.8299 6.63636C69.8299 7.71023 69.6893 8.69886 69.408 9.60227C69.1296 10.5028 68.7305 11.3324 68.2106 12.0909H67.3242C67.5288 11.8097 67.7191 11.4631 67.8952 11.0511C68.0742 10.642 68.2305 10.1932 68.364 9.70455C68.4975 9.21307 68.6012 8.70597 68.6751 8.18324C68.7518 7.65767 68.7901 7.14205 68.7901 6.63636C68.7901 5.96023 68.7248 5.27415 68.5941 4.57812C68.4634 3.8821 68.2873 3.2358 68.0657 2.6392C67.8441 2.04261 67.5969 1.55682 67.3242 1.18182H68.2106C68.7305 1.94034 69.1296 2.77131 69.408 3.67472C69.6893 4.57528 69.8299 5.5625 69.8299 6.63636Z"/>
<path d="M72.1662 11V2.27273H77.4332V3.21023H73.223V6.15909H77.1605V7.09659H73.223V10.0625H77.5014V11H72.1662Z"/>
</mask>
<path d="M1.05682 11V2.27273H2.11364V10.0625H6.17045V11H1.05682ZM8.86364 2.27273V11H7.80682V2.27273H8.86364ZM15.7553 4.45455C15.7042 4.02273 15.4968 3.6875 15.1332 3.44886C14.7695 3.21023 14.3235 3.09091 13.7951 3.09091C13.4087 3.09091 13.0707 3.15341 12.7809 3.27841C12.494 3.40341 12.2695 3.57528 12.1076 3.79403C11.9485 4.01278 11.869 4.26136 11.869 4.53977C11.869 4.77273 11.9244 4.97301 12.0352 5.14062C12.1488 5.3054 12.2937 5.44318 12.4698 5.55398C12.646 5.66193 12.8306 5.75142 13.0238 5.82244C13.217 5.89062 13.3945 5.94602 13.5565 5.98864L14.4428 6.22727C14.6701 6.28693 14.9229 6.36932 15.2013 6.47443C15.4826 6.57955 15.7511 6.72301 16.0067 6.90483C16.2653 7.08381 16.4783 7.31392 16.646 7.59517C16.8136 7.87642 16.8974 8.22159 16.8974 8.63068C16.8974 9.10227 16.7738 9.52841 16.5266 9.90909C16.2823 10.2898 15.9244 10.5923 15.4528 10.8168C14.984 11.0412 14.4144 11.1534 13.744 11.1534C13.119 11.1534 12.5778 11.0526 12.1204 10.8509C11.6658 10.6491 11.3079 10.3679 11.0465 10.0071C10.788 9.64631 10.6417 9.22727 10.6076 8.75H11.6985C11.7269 9.07955 11.8377 9.35227 12.0309 9.56818C12.2269 9.78125 12.4741 9.94034 12.7724 10.0455C13.0735 10.1477 13.3974 10.1989 13.744 10.1989C14.1474 10.1989 14.5096 10.1335 14.8306 10.0028C15.1516 9.86932 15.4059 9.68466 15.5934 9.44886C15.7809 9.21023 15.8746 8.93182 15.8746 8.61364C15.8746 8.32386 15.7937 8.08807 15.6317 7.90625C15.4698 7.72443 15.2567 7.5767 14.9925 7.46307C14.7283 7.34943 14.4428 7.25 14.136 7.16477L13.0621 6.85795C12.3803 6.66193 11.8406 6.3821 11.4428 6.01847C11.0451 5.65483 10.8462 5.17898 10.8462 4.59091C10.8462 4.10227 10.9783 3.67614 11.2425 3.3125C11.5096 2.94602 11.8675 2.66193 12.3164 2.46023C12.7681 2.25568 13.2724 2.15341 13.8292 2.15341C14.3917 2.15341 14.8917 2.25426 15.3292 2.45597C15.7667 2.65483 16.1133 2.92756 16.369 3.27415C16.6275 3.62074 16.7638 4.0142 16.7781 4.45455H15.7553ZM18.9929 11H17.8849L21.0895 2.27273H22.1804L25.3849 11H24.277L21.669 3.65341H21.6009L18.9929 11ZM19.402 7.59091H23.8679V8.52841H19.402V7.59091ZM26.7443 11V2.27273H29.6932C30.375 2.27273 30.9347 2.3892 31.3722 2.62216C31.8097 2.85227 32.1335 3.16903 32.3438 3.57244C32.554 3.97585 32.6591 4.43466 32.6591 4.94886C32.6591 5.46307 32.554 5.91903 32.3438 6.31676C32.1335 6.71449 31.8111 7.02699 31.3764 7.25426C30.9418 7.47869 30.3864 7.59091 29.7102 7.59091H27.3239V6.63636H29.6761C30.142 6.63636 30.517 6.56818 30.8011 6.43182C31.0881 6.29545 31.2955 6.10227 31.4233 5.85227C31.554 5.59943 31.6193 5.2983 31.6193 4.94886C31.6193 4.59943 31.554 4.29403 31.4233 4.03267C31.2926 3.77131 31.0838 3.5696 30.7969 3.42756C30.5099 3.28267 30.1307 3.21023 29.6591 3.21023H27.8011V11H26.7443ZM30.8523 7.07955L33 11H31.7727L29.6591 7.07955H30.8523ZM34.4201 11V2.27273H37.4712C38.0792 2.27273 38.5806 2.37784 38.9755 2.58807C39.3704 2.79545 39.6644 3.07528 39.8576 3.42756C40.0508 3.77699 40.1474 4.16477 40.1474 4.59091C40.1474 4.96591 40.0806 5.27557 39.9471 5.51989C39.8164 5.7642 39.6431 5.95739 39.4272 6.09943C39.2141 6.24148 38.9826 6.34659 38.7326 6.41477V6.5C38.9996 6.51705 39.2681 6.6108 39.538 6.78125C39.8079 6.9517 40.0337 7.19602 40.2156 7.5142C40.3974 7.83239 40.4883 8.22159 40.4883 8.68182C40.4883 9.11932 40.3888 9.51278 40.19 9.86222C39.9911 10.2116 39.6772 10.4886 39.2482 10.6932C38.8192 10.8977 38.261 11 37.5735 11H34.4201ZM35.4769 10.0625H37.5735C38.2638 10.0625 38.7539 9.92898 39.0437 9.66193C39.3363 9.39205 39.4826 9.06534 39.4826 8.68182C39.4826 8.38636 39.4073 8.11364 39.2567 7.86364C39.1062 7.6108 38.8917 7.40909 38.6133 7.25852C38.3349 7.10511 38.0053 7.02841 37.6246 7.02841H35.4769V10.0625ZM35.4769 6.10795H37.4371C37.7553 6.10795 38.0423 6.04545 38.2979 5.92045C38.5565 5.79545 38.761 5.61932 38.9116 5.39205C39.065 5.16477 39.1417 4.89773 39.1417 4.59091C39.1417 4.20739 39.0082 3.8821 38.7411 3.61506C38.4741 3.34517 38.0508 3.21023 37.4712 3.21023H35.4769V6.10795ZM49.2475 5H48.1907C48.1282 4.69602 48.0188 4.42898 47.8626 4.19886C47.7092 3.96875 47.5217 3.77557 47.3001 3.61932C47.0813 3.46023 46.8384 3.34091 46.5714 3.26136C46.3043 3.18182 46.0259 3.14205 45.7362 3.14205C45.2077 3.14205 44.729 3.27557 44.3001 3.54261C43.8739 3.80966 43.5344 4.20312 43.2816 4.72301C43.0316 5.2429 42.9066 5.88068 42.9066 6.63636C42.9066 7.39205 43.0316 8.02983 43.2816 8.54972C43.5344 9.0696 43.8739 9.46307 44.3001 9.73011C44.729 9.99716 45.2077 10.1307 45.7362 10.1307C46.0259 10.1307 46.3043 10.0909 46.5714 10.0114C46.8384 9.93182 47.0813 9.81392 47.3001 9.65767C47.5217 9.49858 47.7092 9.30398 47.8626 9.07386C48.0188 8.84091 48.1282 8.57386 48.1907 8.27273H49.2475C49.168 8.71875 49.0231 9.1179 48.8129 9.47017C48.6026 9.82244 48.3413 10.1222 48.0288 10.3693C47.7163 10.6136 47.3654 10.7997 46.9762 10.9276C46.5898 11.0554 46.1765 11.1193 45.7362 11.1193C44.9918 11.1193 44.3299 10.9375 43.7504 10.5739C43.1708 10.2102 42.7148 9.69318 42.3825 9.02273C42.0501 8.35227 41.8839 7.55682 41.8839 6.63636C41.8839 5.71591 42.0501 4.92045 42.3825 4.25C42.7148 3.57955 43.1708 3.0625 43.7504 2.69886C44.3299 2.33523 44.9918 2.15341 45.7362 2.15341C46.1765 2.15341 46.5898 2.21733 46.9762 2.34517C47.3654 2.47301 47.7163 2.66051 48.0288 2.90767C48.3413 3.15199 48.6026 3.45028 48.8129 3.80256C49.0231 4.15199 49.168 4.55114 49.2475 5ZM58.3189 6.63636C58.3189 7.55682 58.1527 8.35227 57.8203 9.02273C57.4879 9.69318 57.032 10.2102 56.4524 10.5739C55.8729 10.9375 55.2109 11.1193 54.4666 11.1193C53.7223 11.1193 53.0604 10.9375 52.4808 10.5739C51.9013 10.2102 51.4453 9.69318 51.1129 9.02273C50.7805 8.35227 50.6143 7.55682 50.6143 6.63636C50.6143 5.71591 50.7805 4.92045 51.1129 4.25C51.4453 3.57955 51.9013 3.0625 52.4808 2.69886C53.0604 2.33523 53.7223 2.15341 54.4666 2.15341C55.2109 2.15341 55.8729 2.33523 56.4524 2.69886C57.032 3.0625 57.4879 3.57955 57.8203 4.25C58.1527 4.92045 58.3189 5.71591 58.3189 6.63636ZM57.2962 6.63636C57.2962 5.88068 57.1697 5.2429 56.9169 4.72301C56.6669 4.20312 56.3274 3.80966 55.8984 3.54261C55.4723 3.27557 54.995 3.14205 54.4666 3.14205C53.9382 3.14205 53.4595 3.27557 53.0305 3.54261C52.6044 3.80966 52.2649 4.20312 52.0121 4.72301C51.7621 5.2429 51.6371 5.88068 51.6371 6.63636C51.6371 7.39205 51.7621 8.02983 52.0121 8.54972C52.2649 9.0696 52.6044 9.46307 53.0305 9.73011C53.4595 9.99716 53.9382 10.1307 54.4666 10.1307C54.995 10.1307 55.4723 9.99716 55.8984 9.73011C56.3274 9.46307 56.6669 9.0696 56.9169 8.54972C57.1697 8.02983 57.2962 7.39205 57.2962 6.63636Z" fill="#FFF7F7"/>
<path d="M59.4822 6.65341V6.125C59.9567 6.125 60.2876 6.02557 60.4751 5.8267C60.6655 5.62784 60.7607 5.29545 60.7607 4.82955V3.46591C60.7607 3.07386 60.7976 2.73437 60.8714 2.44744C60.9482 2.16051 61.0717 1.9233 61.2422 1.7358C61.4126 1.5483 61.6399 1.40909 61.924 1.31818C62.2081 1.22727 62.5589 1.18182 62.9766 1.18182V2.01705C62.647 2.01705 62.3871 2.06818 62.1967 2.17045C62.0092 2.27273 61.8757 2.43182 61.7962 2.64773C61.7195 2.8608 61.6811 3.13352 61.6811 3.46591V5.17045C61.6811 5.39205 61.6513 5.59375 61.5916 5.77557C61.5348 5.95739 61.4283 6.11364 61.272 6.24432C61.1158 6.375 60.8928 6.47585 60.603 6.54688C60.3161 6.6179 59.9425 6.65341 59.4822 6.65341ZM62.9766 12.0909C62.5589 12.0909 62.2081 12.0455 61.924 11.9545C61.6399 11.8636 61.4126 11.7244 61.2422 11.5369C61.0717 11.3494 60.9482 11.1122 60.8714 10.8253C60.7976 10.5384 60.7607 10.1989 60.7607 9.80682V8.44318C60.7607 7.97727 60.6655 7.64489 60.4751 7.44602C60.2876 7.24716 59.9567 7.14773 59.4822 7.14773V6.61932C59.9425 6.61932 60.3161 6.65483 60.603 6.72585C60.8928 6.79687 61.1158 6.89773 61.272 7.02841C61.4283 7.15909 61.5348 7.31534 61.5916 7.49716C61.6513 7.67898 61.6811 7.88068 61.6811 8.10227V9.80682C61.6811 10.1392 61.7195 10.4119 61.7962 10.625C61.8757 10.8381 62.0092 10.9957 62.1967 11.098C62.3871 11.2031 62.647 11.2557 62.9766 11.2557V12.0909ZM59.4822 7.14773V6.125H60.4879V7.14773H59.4822ZM69.8299 6.63636C69.8299 7.71023 69.6893 8.69886 69.408 9.60227C69.1296 10.5028 68.7305 11.3324 68.2106 12.0909H67.3242C67.5288 11.8097 67.7191 11.4631 67.8952 11.0511C68.0742 10.642 68.2305 10.1932 68.364 9.70455C68.4975 9.21307 68.6012 8.70597 68.6751 8.18324C68.7518 7.65767 68.7901 7.14205 68.7901 6.63636C68.7901 5.96023 68.7248 5.27415 68.5941 4.57812C68.4634 3.8821 68.2873 3.2358 68.0657 2.6392C67.8441 2.04261 67.5969 1.55682 67.3242 1.18182H68.2106C68.7305 1.94034 69.1296 2.77131 69.408 3.67472C69.6893 4.57528 69.8299 5.5625 69.8299 6.63636Z" fill="#B30EFF"/>
<path d="M72.1662 11V2.27273H77.4332V3.21023H73.223V6.15909H77.1605V7.09659H73.223V10.0625H77.5014V11H72.1662Z" fill="#FEFCFF"/>
<path d="M1.05682 11H0.0568182V12H1.05682V11ZM1.05682 2.27273V1.27273H0.0568182V2.27273H1.05682ZM2.11364 2.27273H3.11364V1.27273H2.11364V2.27273ZM2.11364 10.0625H1.11364V11.0625H2.11364V10.0625ZM6.17045 10.0625H7.17045V9.0625H6.17045V10.0625ZM6.17045 11V12H7.17045V11H6.17045ZM2.05682 11V2.27273H0.0568182V11H2.05682ZM1.05682 3.27273H2.11364V1.27273H1.05682V3.27273ZM1.11364 2.27273V10.0625H3.11364V2.27273H1.11364ZM2.11364 11.0625H6.17045V9.0625H2.11364V11.0625ZM5.17045 10.0625V11H7.17045V10.0625H5.17045ZM6.17045 10H1.05682V12H6.17045V10ZM8.86364 2.27273H9.86364V1.27273H8.86364V2.27273ZM8.86364 11V12H9.86364V11H8.86364ZM7.80682 11H6.80682V12H7.80682V11ZM7.80682 2.27273V1.27273H6.80682V2.27273H7.80682ZM7.86364 2.27273V11H9.86364V2.27273H7.86364ZM8.86364 10H7.80682V12H8.86364V10ZM8.80682 11V2.27273H6.80682V11H8.80682ZM7.80682 3.27273H8.86364V1.27273H7.80682V3.27273ZM15.7553 4.45455L14.7623 4.57214L14.8668 5.45455H15.7553V4.45455ZM15.1332 3.44886L14.5845 4.28491L14.5845 4.28491L15.1332 3.44886ZM12.7809 3.27841L12.3848 2.36019L12.3815 2.36163L12.7809 3.27841ZM12.1076 3.79403L11.3038 3.19903L11.2989 3.20586L12.1076 3.79403ZM12.0352 5.14062L11.2009 5.69206L11.2064 5.70026L11.2119 5.70836L12.0352 5.14062ZM12.4698 5.55398L11.9373 6.4005L11.9473 6.40658L12.4698 5.55398ZM13.0238 5.82244L12.6787 6.7611L12.691 6.76543L13.0238 5.82244ZM13.5565 5.98864L13.8164 5.023L13.811 5.02156L13.5565 5.98864ZM14.4428 6.22727L14.1828 7.19291L14.1889 7.1945L14.4428 6.22727ZM15.2013 6.47443L14.8481 7.40998L14.8513 7.41115L15.2013 6.47443ZM16.0067 6.90483L15.4272 7.71985L15.4375 7.72702L16.0067 6.90483ZM16.646 7.59517L17.505 7.08323L17.505 7.08323L16.646 7.59517ZM16.5266 9.90909L15.6879 9.36454L15.685 9.36897L16.5266 9.90909ZM15.4528 10.8168L15.023 9.9138L15.0209 9.91481L15.4528 10.8168ZM12.1204 10.8509L11.7148 11.7649L11.7169 11.7658L12.1204 10.8509ZM11.0465 10.0071L10.2336 10.5896L10.2367 10.5938L11.0465 10.0071ZM10.6076 8.75V7.75H9.53362L9.61014 8.82125L10.6076 8.75ZM11.6985 8.75L12.6948 8.66411L12.616 7.75H11.6985V8.75ZM12.0309 9.56818L11.2856 10.235L11.295 10.2452L12.0309 9.56818ZM12.7724 10.0455L12.44 10.9887L12.4508 10.9923L12.7724 10.0455ZM14.8306 10.0028L15.2077 10.9291L15.2146 10.9262L14.8306 10.0028ZM15.5934 9.44886L16.3761 10.0713L16.3797 10.0667L15.5934 9.44886ZM15.6317 7.90625L16.3785 7.24116L16.3785 7.24116L15.6317 7.90625ZM14.9925 7.46307L14.5974 8.3817L14.5974 8.3817L14.9925 7.46307ZM14.136 7.16477L13.8613 8.12632L13.8684 8.12829L14.136 7.16477ZM13.0621 6.85795L12.7858 7.81902L12.7874 7.81948L13.0621 6.85795ZM11.4428 6.01847L10.7681 6.75649L10.7681 6.75649L11.4428 6.01847ZM11.2425 3.3125L10.4343 2.72358L10.4335 2.7247L11.2425 3.3125ZM12.3164 2.46023L12.7263 3.37237L12.7289 3.37118L12.3164 2.46023ZM15.3292 2.45597L14.9105 3.36411L14.9154 3.36633L15.3292 2.45597ZM16.369 3.27415L15.5642 3.8678L15.5674 3.87204L16.369 3.27415ZM16.7781 4.45455V5.45455H17.8108L17.7775 4.4223L16.7781 4.45455ZM16.7484 4.33695C16.6625 3.61167 16.2924 3.01349 15.6818 2.61282L14.5845 4.28491C14.7012 4.36151 14.7459 4.43378 14.7623 4.57214L16.7484 4.33695ZM15.6818 2.61282C15.1231 2.24616 14.4762 2.09091 13.7951 2.09091V4.09091C14.1708 4.09091 14.4159 4.17429 14.5845 4.28491L15.6818 2.61282ZM13.7951 2.09091C13.3023 2.09091 12.8244 2.17058 12.3848 2.3602L13.177 4.19662C13.317 4.13624 13.5152 4.09091 13.7951 4.09091V2.09091ZM12.3815 2.36163C11.9583 2.54597 11.5848 2.81949 11.3039 3.19906L12.9113 4.38901C12.9542 4.33108 13.0296 4.26084 13.1803 4.19519L12.3815 2.36163ZM11.2989 3.20586C11.0116 3.60082 10.869 4.05665 10.869 4.53977H12.869C12.869 4.46608 12.8854 4.42475 12.9163 4.38221L11.2989 3.20586ZM10.869 4.53977C10.869 4.93678 10.9656 5.33604 11.2009 5.69206L12.8694 4.58919C12.8738 4.59592 12.875 4.6006 12.8743 4.59812C12.8733 4.59456 12.869 4.57688 12.869 4.53977H10.869ZM11.2119 5.70836C11.4056 5.98923 11.6511 6.22034 11.9374 6.40044L13.0023 4.70752C12.9363 4.66603 12.8919 4.62157 12.8584 4.57289L11.2119 5.70836ZM11.9473 6.40658C12.1794 6.54884 12.4235 6.66717 12.6787 6.76102L13.3689 4.88386C13.2378 4.83567 13.1125 4.77502 12.9924 4.70138L11.9473 6.40658ZM12.691 6.76543C12.9045 6.84079 13.1086 6.90481 13.302 6.95571L13.811 5.02156C13.6805 4.98723 13.5295 4.94046 13.3566 4.87945L12.691 6.76543ZM13.2965 6.95425L14.1829 7.19289L14.7028 5.26166L13.8164 5.02302L13.2965 6.95425ZM14.1889 7.1945C14.3751 7.24338 14.5941 7.31408 14.8481 7.40997L15.5546 5.53889C15.2517 5.42456 14.9651 5.33049 14.6967 5.26004L14.1889 7.1945ZM14.8513 7.41115C15.0475 7.48448 15.2392 7.58609 15.4272 7.71978L16.5863 6.08987C16.2629 5.85993 15.9177 5.67461 15.5514 5.53771L14.8513 7.41115ZM15.4375 7.72702C15.5735 7.82114 15.6895 7.94363 15.7869 8.10711L17.505 7.08323C17.2672 6.68421 16.9571 6.34647 16.576 6.08264L15.4375 7.72702ZM15.7869 8.10711C15.8419 8.19928 15.8974 8.35727 15.8974 8.63068H17.8974C17.8974 8.08592 17.7853 7.55356 17.505 7.08323L15.7869 8.10711ZM15.8974 8.63068C15.8974 8.91694 15.8256 9.15252 15.6879 9.36454L17.3654 10.4536C17.722 9.90429 17.8974 9.2876 17.8974 8.63068H15.8974ZM15.685 9.36897C15.5563 9.56962 15.3527 9.75689 15.023 9.9138L15.8825 11.7197C16.496 11.4278 17.0084 11.0099 17.3682 10.4492L15.685 9.36897ZM15.0209 9.91481C14.7202 10.0588 14.3067 10.1534 13.744 10.1534V12.1534C14.5221 12.1534 15.2478 12.0236 15.8846 11.7187L15.0209 9.91481ZM13.744 10.1534C13.2242 10.1534 12.8266 10.0693 12.5239 9.93587L11.7169 11.7658C12.329 12.0358 13.0137 12.1534 13.744 12.1534V10.1534ZM12.526 9.93681C12.2135 9.79815 12.0026 9.62228 11.8564 9.42045L10.2367 10.5938C10.6132 11.1135 11.1181 11.5001 11.7148 11.7649L12.526 9.93681ZM11.8594 9.42465C11.7168 9.22567 11.6271 8.98678 11.6051 8.67875L9.61014 8.82125C9.65632 9.46777 9.85919 10.0669 10.2337 10.5896L11.8594 9.42465ZM10.6076 9.75H11.6985V7.75H10.6076V9.75ZM10.7022 8.83589C10.7465 9.34922 10.9281 9.83537 11.2857 10.235L12.7761 8.90139C12.7473 8.86917 12.7074 8.80987 12.6948 8.66411L10.7022 8.83589ZM11.295 10.2452C11.6117 10.5896 12.002 10.8343 12.44 10.9886L13.1047 9.1023C12.9461 9.04641 12.8421 8.97295 12.7668 8.89113L11.295 10.2452ZM12.4508 10.9923C12.8644 11.1328 13.2978 11.1989 13.744 11.1989V9.19886C13.497 9.19886 13.2826 9.16265 13.094 9.09857L12.4508 10.9923ZM13.744 11.1989C14.2557 11.1989 14.7489 11.1158 15.2076 10.929L14.4536 9.07664C14.2702 9.15128 14.039 9.19886 13.744 9.19886V11.1989ZM15.2146 10.9262C15.6676 10.7378 16.0681 10.4586 16.3761 10.0713L14.8107 8.82647C14.7437 8.91068 14.6357 9.00087 14.4466 9.07952L15.2146 10.9262ZM16.3797 10.0667C16.7127 9.6429 16.8746 9.14421 16.8746 8.61364H14.8746C14.8746 8.71943 14.8491 8.77755 14.8071 8.83104L16.3797 10.0667ZM16.8746 8.61364C16.8746 8.1278 16.7335 7.6398 16.3785 7.24116L14.885 8.57134C14.8813 8.56716 14.8772 8.56168 14.8736 8.55551C14.87 8.54939 14.8684 8.54515 14.8681 8.54422C14.8674 8.54219 14.8746 8.56169 14.8746 8.61364H16.8746ZM16.3785 7.24116C16.1033 6.9321 15.7621 6.70549 15.3877 6.54443L14.5974 8.3817C14.7514 8.44792 14.8364 8.51677 14.885 8.57134L16.3785 7.24116ZM15.3877 6.54444C15.0779 6.41121 14.7494 6.29729 14.4037 6.20125L13.8684 8.12829C14.1363 8.20271 14.3788 8.28766 14.5974 8.3817L15.3877 6.54444ZM14.4107 6.20325L13.3369 5.89643L12.7874 7.81948L13.8613 8.1263L14.4107 6.20325ZM13.3385 5.89689C12.7599 5.73054 12.3713 5.51242 12.1176 5.28044L10.7681 6.75649C11.3098 7.25178 12.0008 7.59332 12.7858 7.81902L13.3385 5.89689ZM12.1176 5.28044C11.9473 5.12473 11.8462 4.92684 11.8462 4.59091H9.84624C9.84624 5.43112 10.1429 6.18493 10.7681 6.75649L12.1176 5.28044ZM11.8462 4.59091C11.8462 4.29405 11.9224 4.07802 12.0516 3.9003L10.4335 2.7247C10.0343 3.27425 9.84624 3.9105 9.84624 4.59091H11.8462ZM12.0507 3.90142C12.2067 3.68732 12.4221 3.50905 12.7263 3.37236L11.9065 1.54809C11.313 1.81481 10.8124 2.20472 10.4343 2.72358L12.0507 3.90142ZM12.7289 3.37118C13.0359 3.23215 13.3971 3.15341 13.8292 3.15341V1.15341C13.1476 1.15341 12.5003 1.27921 11.9039 1.54927L12.7289 3.37118ZM13.8292 3.15341C14.2712 3.15341 14.6245 3.23224 14.9105 3.3641L15.7479 1.54783C15.1589 1.27628 14.5122 1.15341 13.8292 1.15341V3.15341ZM14.9154 3.36633C15.216 3.503 15.4211 3.67371 15.5642 3.8678L17.1737 2.6805C16.8055 2.18141 16.3173 1.80666 15.743 1.5456L14.9154 3.36633ZM15.5674 3.87204C15.7012 4.05147 15.7708 4.24666 15.7786 4.48679L17.7775 4.4223C17.7569 3.78174 17.5538 3.19001 17.1705 2.67625L15.5674 3.87204ZM16.7781 3.45455H15.7553V5.45455H16.7781V3.45455ZM18.9929 11V12H19.699L19.9353 11.3345L18.9929 11ZM17.8849 11L16.9462 10.6553L16.4525 12H17.8849V11ZM21.0895 2.27273V1.27273H20.3914L20.1508 1.92804L21.0895 2.27273ZM22.1804 2.27273L23.1191 1.92804L22.8785 1.27273H22.1804V2.27273ZM25.3849 11V12H26.8174L26.3237 10.6553L25.3849 11ZM24.277 11L23.3346 11.3345L23.5708 12H24.277V11ZM21.669 3.65341L22.6114 3.31887L22.3752 2.65341H21.669V3.65341ZM21.6009 3.65341V2.65341H20.8947L20.6585 3.31887L21.6009 3.65341ZM19.402 7.59091V6.59091H18.402V7.59091H19.402ZM23.8679 7.59091H24.8679V6.59091H23.8679V7.59091ZM23.8679 8.52841V9.52841H24.8679V8.52841H23.8679ZM19.402 8.52841H18.402V9.52841H19.402V8.52841ZM18.9929 10H17.8849V12H18.9929V10ZM18.8237 11.3447L22.0282 2.61741L20.1508 1.92804L16.9462 10.6553L18.8237 11.3447ZM21.0895 3.27273H22.1804V1.27273H21.0895V3.27273ZM21.2417 2.61741L24.4462 11.3447L26.3237 10.6553L23.1191 1.92804L21.2417 2.61741ZM25.3849 10H24.277V12H25.3849V10ZM25.2194 10.6655L22.6114 3.31887L20.7267 3.98794L23.3346 11.3345L25.2194 10.6655ZM21.669 2.65341H21.6009V4.65341H21.669V2.65341ZM20.6585 3.31887L18.0505 10.6655L19.9353 11.3345L22.5432 3.98794L20.6585 3.31887ZM19.402 8.59091H23.8679V6.59091H19.402V8.59091ZM22.8679 7.59091V8.52841H24.8679V7.59091H22.8679ZM23.8679 7.52841H19.402V9.52841H23.8679V7.52841ZM20.402 8.52841V7.59091H18.402V8.52841H20.402ZM26.7443 11H25.7443V12H26.7443V11ZM26.7443 2.27273V1.27273H25.7443V2.27273H26.7443ZM31.3722 2.62216L30.9022 3.50484L30.9066 3.5072L31.3722 2.62216ZM32.3438 3.57244L31.4569 4.03458L31.4569 4.03458L32.3438 3.57244ZM32.3438 6.31676L31.4597 5.84945L31.4597 5.84945L32.3438 6.31676ZM31.3764 7.25426L31.8352 8.14282L31.8398 8.14043L31.3764 7.25426ZM27.3239 7.59091H26.3239V8.59091H27.3239V7.59091ZM27.3239 6.63636V5.63636H26.3239V6.63636H27.3239ZM30.8011 6.43182L30.3719 5.52862L30.3684 5.53029L30.8011 6.43182ZM31.4233 5.85227L30.5349 5.39312L30.533 5.39698L31.4233 5.85227ZM30.7969 3.42756L30.3461 4.32024L30.3532 4.32375L30.7969 3.42756ZM27.8011 3.21023V2.21023H26.8011V3.21023H27.8011ZM27.8011 11V12H28.8011V11H27.8011ZM30.8523 7.07955L31.7293 6.59909L31.4447 6.07955H30.8523V7.07955ZM33 11V12H34.6881L33.877 10.5195L33 11ZM31.7727 11L30.8925 11.4746L31.1758 12H31.7727V11ZM29.6591 7.07955V6.07955H27.9839L28.7789 7.5541L29.6591 7.07955ZM27.7443 11V2.27273H25.7443V11H27.7443ZM26.7443 3.27273H29.6932V1.27273H26.7443V3.27273ZM29.6932 3.27273C30.2696 3.27273 30.6534 3.37237 30.9022 3.50483L31.8422 1.73949C31.2159 1.40604 30.4804 1.27273 29.6932 1.27273V3.27273ZM30.9066 3.5072C31.1803 3.65115 31.349 3.8275 31.4569 4.03458L33.2306 3.1103C32.918 2.51057 32.439 2.0534 31.8377 1.73712L30.9066 3.5072ZM31.4569 4.03458C31.5836 4.27761 31.6591 4.57437 31.6591 4.94886H33.6591C33.6591 4.29495 33.5244 3.67409 33.2306 3.1103L31.4569 4.03458ZM31.6591 4.94886C31.6591 5.32368 31.5835 5.61516 31.4597 5.84945L33.2278 6.78407C33.5245 6.22291 33.6591 5.60246 33.6591 4.94886H31.6591ZM31.4597 5.84945C31.3526 6.05197 31.1853 6.22575 30.9131 6.36809L31.8398 8.14043C32.4369 7.82822 32.9144 7.37701 33.2278 6.78407L31.4597 5.84945ZM30.9176 6.36572C30.6685 6.49436 30.2845 6.59091 29.7102 6.59091V8.59091C30.4883 8.59091 31.215 8.46303 31.8352 8.14281L30.9176 6.36572ZM29.7102 6.59091H27.3239V8.59091H29.7102V6.59091ZM28.3239 7.59091V6.63636H26.3239V7.59091H28.3239ZM27.3239 7.63636H29.6761V5.63636H27.3239V7.63636ZM29.6761 7.63636C30.226 7.63636 30.7658 7.55799 31.2339 7.33334L30.3684 5.53029C30.2682 5.57837 30.0581 5.63636 29.6761 5.63636V7.63636ZM31.2304 7.33501C31.6887 7.1172 32.0726 6.77896 32.3136 6.30756L30.533 5.39698C30.5183 5.42558 30.4874 5.47371 30.3719 5.52863L31.2304 7.33501ZM32.3117 6.31142C32.5306 5.88791 32.6193 5.42223 32.6193 4.94886H30.6193C30.6193 5.17436 30.5774 5.31096 30.5349 5.39312L32.3117 6.31142ZM32.6193 4.94886C32.6193 4.47431 32.5302 4.01032 32.3177 3.58546L30.5289 4.47988C30.5778 4.57775 30.6193 4.72456 30.6193 4.94886H32.6193ZM32.3177 3.58546C32.0803 3.11053 31.7029 2.76023 31.2405 2.53136L30.3532 4.32375C30.4648 4.37897 30.505 4.43209 30.5289 4.47988L32.3177 3.58546ZM31.2476 2.5349C30.771 2.29424 30.2197 2.21023 29.6591 2.21023V4.21023C30.0417 4.21023 30.2489 4.2711 30.3461 4.32021L31.2476 2.5349ZM29.6591 2.21023H27.8011V4.21023H29.6591V2.21023ZM26.8011 3.21023V11H28.8011V3.21023H26.8011ZM27.8011 10H26.7443V12H27.8011V10ZM29.9753 7.56L32.123 11.4805L33.877 10.5195L31.7293 6.59909L29.9753 7.56ZM33 10H31.7727V12H33V10ZM32.653 10.5254L30.5393 6.60499L28.7789 7.5541L30.8925 11.4746L32.653 10.5254ZM29.6591 8.07955H30.8523V6.07955H29.6591V8.07955ZM34.4201 11H33.4201V12H34.4201V11ZM34.4201 2.27273V1.27273H33.4201V2.27273H34.4201ZM38.9755 2.58807L38.5056 3.47079L38.5105 3.4734L38.9755 2.58807ZM39.8576 3.42756L38.9808 3.90839L38.9824 3.91139L39.8576 3.42756ZM39.9471 5.51989L39.0695 5.0403L39.0653 5.04823L39.9471 5.51989ZM39.4272 6.09943L38.8776 5.264L38.8725 5.26738L39.4272 6.09943ZM38.7326 6.41477L38.4695 5.45001L37.7326 5.65098V6.41477H38.7326ZM38.7326 6.5H37.7326V7.43821L38.6689 7.49797L38.7326 6.5ZM39.538 6.78125L39.004 7.62674L39.004 7.62674L39.538 6.78125ZM40.19 9.86222L41.0591 10.3568L41.0591 10.3568L40.19 9.86222ZM39.2482 10.6932L38.8178 9.79054L38.8178 9.79054L39.2482 10.6932ZM35.4769 10.0625H34.4769V11.0625H35.4769V10.0625ZM39.0437 9.66193L39.7214 10.3973L39.7217 10.397L39.0437 9.66193ZM39.2567 7.86364L38.3975 8.3753L38.4001 8.37956L39.2567 7.86364ZM38.6133 7.25852L38.1307 8.13439L38.1376 8.13813L38.6133 7.25852ZM35.4769 7.02841V6.02841H34.4769V7.02841H35.4769ZM35.4769 6.10795H34.4769V7.10795H35.4769V6.10795ZM38.2979 5.92045L37.8626 5.02016L37.8587 5.02207L38.2979 5.92045ZM38.9116 5.39205L38.0827 4.83255L38.0779 4.83975L38.9116 5.39205ZM38.7411 3.61506L38.0303 4.31842L38.034 4.32216L38.7411 3.61506ZM35.4769 3.21023V2.21023H34.4769V3.21023H35.4769ZM35.4201 11V2.27273H33.4201V11H35.4201ZM34.4201 3.27273H37.4712V1.27273H34.4201V3.27273ZM37.4712 3.27273C37.9714 3.27273 38.2979 3.36021 38.5056 3.47077L39.4454 1.70536C38.8633 1.39547 38.1869 1.27273 37.4712 1.27273V3.27273ZM38.5105 3.4734C38.7513 3.59983 38.8924 3.74722 38.9808 3.90839L40.7344 2.94672C40.4364 2.40335 39.9895 1.99108 39.4405 1.70274L38.5105 3.4734ZM38.9824 3.91139C39.0882 4.10275 39.1474 4.32227 39.1474 4.59091H41.1474C41.1474 4.00728 41.0133 3.45123 40.7328 2.94373L38.9824 3.91139ZM39.1474 4.59091C39.1474 4.85406 39.0997 4.98526 39.0696 5.04032L40.8246 5.99945C41.0615 5.56588 41.1474 5.07775 41.1474 4.59091H39.1474ZM39.0653 5.04823C39.0074 5.15641 38.9442 5.2202 38.8776 5.26401L39.9768 6.93485C40.342 6.69458 40.6254 6.372 40.8289 5.99154L39.0653 5.04823ZM38.8725 5.26738C38.7499 5.34909 38.617 5.40976 38.4695 5.45001L38.9957 7.37954C39.3482 7.28342 39.6783 7.13387 39.9819 6.93148L38.8725 5.26738ZM37.7326 6.41477V6.5H39.7326V6.41477H37.7326ZM38.6689 7.49797C38.7394 7.50247 38.8484 7.52846 39.004 7.62674L40.072 5.93576C39.6878 5.69313 39.2599 5.53162 38.7963 5.50203L38.6689 7.49797ZM39.004 7.62674C39.1163 7.69767 39.2345 7.81301 39.3473 8.01034L41.0838 7.01807C40.8329 6.57904 40.4995 6.20574 40.072 5.93576L39.004 7.62674ZM39.3473 8.01034C39.4233 8.14341 39.4883 8.35173 39.4883 8.68182H41.4883C41.4883 8.09145 41.3714 7.52136 41.0838 7.01807L39.3473 8.01034ZM39.4883 8.68182C39.4883 8.96162 39.4265 9.18201 39.3209 9.3676L41.0591 10.3568C41.3512 9.84356 41.4883 9.27702 41.4883 8.68182H39.4883ZM39.3209 9.3676C39.2405 9.5089 39.0967 9.65756 38.8178 9.79054L39.6786 11.5958C40.2577 11.3197 40.7418 10.9144 41.0591 10.3568L39.3209 9.3676ZM38.8178 9.79054C38.5695 9.90893 38.1736 10 37.5735 10V12C38.3484 12 39.069 11.8865 39.6786 11.5958L38.8178 9.79054ZM37.5735 10H34.4201V12H37.5735V10ZM35.4769 11.0625H37.5735V9.0625H35.4769V11.0625ZM37.5735 11.0625C38.3424 11.0625 39.1505 10.9234 39.7214 10.3973L38.366 8.92658C38.3681 8.92464 38.3296 8.9611 38.1959 8.99753C38.061 9.03429 37.8594 9.0625 37.5735 9.0625V11.0625ZM39.7217 10.397C40.2107 9.94593 40.4826 9.35634 40.4826 8.68182H38.4826C38.4826 8.77434 38.4619 8.83817 38.3657 8.92685L39.7217 10.397ZM40.4826 8.68182C40.4826 8.20693 40.359 7.75548 40.1134 7.34771L38.4001 8.37956C38.4557 8.4718 38.4826 8.5658 38.4826 8.68182H40.4826ZM40.1159 7.35198C39.8661 6.93244 39.5136 6.60858 39.089 6.37892L38.1376 8.13813C38.2697 8.2096 38.3463 8.28915 38.3976 8.37529L40.1159 7.35198ZM39.0959 6.38268C38.643 6.13315 38.1408 6.02841 37.6246 6.02841V8.02841C37.8698 8.02841 38.0267 8.07707 38.1307 8.13436L39.0959 6.38268ZM37.6246 6.02841H35.4769V8.02841H37.6246V6.02841ZM34.4769 7.02841V10.0625H36.4769V7.02841H34.4769ZM35.4769 7.10795H37.4371V5.10795H35.4769V7.10795ZM37.4371 7.10795C37.8894 7.10795 38.3293 7.01823 38.7372 6.81884L37.8587 5.02207C37.7552 5.07268 37.6212 5.10795 37.4371 5.10795V7.10795ZM38.7332 6.82074C39.1444 6.62194 39.4902 6.32936 39.7452 5.94434L38.0779 4.83975C38.0319 4.90928 37.9685 4.96897 37.8626 5.02017L38.7332 6.82074ZM39.7404 5.95152C40.0184 5.5397 40.1417 5.0725 40.1417 4.59091H38.1417C38.1417 4.72296 38.1116 4.78984 38.0827 4.83257L39.7404 5.95152ZM40.1417 4.59091C40.1417 3.94679 39.9061 3.36578 39.4482 2.90795L38.034 4.32216C38.1103 4.39843 38.1417 4.46798 38.1417 4.59091H40.1417ZM39.452 2.9117C38.9182 2.37227 38.1797 2.21023 37.4712 2.21023V4.21023C37.9219 4.21023 38.0299 4.31807 38.0303 4.31841L39.452 2.9117ZM37.4712 2.21023H35.4769V4.21023H37.4712V2.21023ZM34.4769 3.21023V6.10795H36.4769V3.21023H34.4769ZM49.2475 5V6H50.4403L50.2322 4.8255L49.2475 5ZM48.1907 5L47.2112 5.20139L47.3754 6H48.1907V5ZM47.8626 4.19886L47.0305 4.75358L47.0353 4.76061L47.8626 4.19886ZM47.3001 3.61932L46.7119 4.42805L46.7178 4.43236L46.7238 4.43658L47.3001 3.61932ZM46.5714 3.26136L46.2859 4.21975L46.2859 4.21975L46.5714 3.26136ZM44.3001 3.54261L43.7716 2.69367L43.7691 2.69525L44.3001 3.54261ZM43.2816 4.72301L42.3823 4.28565L42.3804 4.28964L43.2816 4.72301ZM43.2816 8.54972L42.3804 8.98309L42.3823 8.98707L43.2816 8.54972ZM44.3001 9.73011L43.7691 10.5775L43.7716 10.5791L44.3001 9.73011ZM46.5714 10.0114L46.2859 9.05298L46.2859 9.05298L46.5714 10.0114ZM47.3001 9.65767L47.8813 10.4714L47.8833 10.47L47.3001 9.65767ZM47.8626 9.07386L47.0321 8.51683L47.0305 8.51916L47.8626 9.07386ZM48.1907 8.27273V7.27273H47.3769L47.2116 8.06951L48.1907 8.27273ZM49.2475 8.27273L50.232 8.4483L50.4416 7.27273H49.2475V8.27273ZM48.8129 9.47017L47.9541 8.95771L47.9541 8.95771L48.8129 9.47017ZM48.0288 10.3693L48.6447 11.1571L48.6491 11.1537L48.0288 10.3693ZM46.9762 10.9276L46.6641 9.97749L46.6621 9.97818L46.9762 10.9276ZM43.7504 10.5739L43.2189 11.4209L43.2189 11.4209L43.7504 10.5739ZM42.3825 9.02273L43.2784 8.57855L43.2784 8.57855L42.3825 9.02273ZM46.9762 2.34517L46.6621 3.29455L46.6641 3.29523L46.9762 2.34517ZM48.0288 2.90767L47.4084 3.69202L47.4128 3.69548L48.0288 2.90767ZM48.8129 3.80256L47.9541 4.31502L47.956 4.31808L48.8129 3.80256ZM49.2475 4H48.1907V6H49.2475V4ZM49.1702 4.79861C49.0843 4.38058 48.9282 3.98809 48.6899 3.63711L47.0353 4.76061C47.1094 4.86987 47.1721 5.01146 47.2112 5.20139L49.1702 4.79861ZM48.6946 3.64416C48.4743 3.31361 48.2007 3.03076 47.8763 2.80206L46.7238 4.43658C46.8426 4.52038 46.9441 4.62389 47.0305 4.75356L48.6946 3.64416ZM47.8882 2.81058C47.575 2.5828 47.2292 2.4139 46.8569 2.30298L46.2859 4.21975C46.4476 4.26792 46.5876 4.33765 46.7119 4.42805L47.8882 2.81058ZM46.8569 2.30298C46.4935 2.19475 46.1187 2.14205 45.7362 2.14205V4.14205C45.9331 4.14205 46.1152 4.16889 46.2859 4.21975L46.8569 2.30298ZM45.7362 2.14205C45.0299 2.14205 44.3666 2.32327 43.7716 2.69367L44.8286 4.39156C45.0915 4.22787 45.3856 4.14205 45.7362 4.14205V2.14205ZM43.7691 2.69525C43.1616 3.07595 42.7046 3.62304 42.3823 4.28565L44.1809 5.16037C44.3643 4.78321 44.5863 4.54337 44.8311 4.38998L43.7691 2.69525ZM42.3804 4.28964C42.0485 4.97989 41.9066 5.77526 41.9066 6.63636H43.9066C43.9066 5.98611 44.0147 5.5059 44.1828 5.15638L42.3804 4.28964ZM41.9066 6.63636C41.9066 7.49747 42.0485 8.29283 42.3804 8.98309L44.1828 8.11634C44.0147 7.76683 43.9066 7.28662 43.9066 6.63636H41.9066ZM42.3823 8.98707C42.7046 9.64969 43.1616 10.1968 43.7691 10.5775L44.8311 8.88275C44.5863 8.72936 44.3643 8.48952 44.1809 8.11236L42.3823 8.98707ZM43.7716 10.5791C44.3666 10.9495 45.0299 11.1307 45.7362 11.1307V9.13068C45.3856 9.13068 45.0915 9.04486 44.8286 8.88117L43.7716 10.5791ZM45.7362 11.1307C46.1187 11.1307 46.4935 11.078 46.8569 10.9697L46.2859 9.05298C46.1152 9.10384 45.9331 9.13068 45.7362 9.13068V11.1307ZM46.8569 10.9697C47.2259 10.8598 47.5694 10.6942 47.8813 10.4714L46.7188 8.84394C46.5933 8.93363 46.451 9.00381 46.2859 9.05298L46.8569 10.9697ZM47.8833 10.47C48.204 10.2397 48.4754 9.95741 48.6946 9.62856L47.0305 8.51916C46.9429 8.65054 46.8393 8.75744 46.7169 8.84535L47.8833 10.47ZM48.6931 9.6309C48.9279 9.28079 49.0836 8.89127 49.1698 8.47594L47.2116 8.06951C47.1728 8.25646 47.1098 8.40102 47.0321 8.51683L48.6931 9.6309ZM48.1907 9.27273H49.2475V7.27273H48.1907V9.27273ZM48.263 8.09715C48.2025 8.4366 48.0963 8.7195 47.9541 8.95771L49.6716 9.98263C49.9499 9.51629 50.1334 9.0009 50.232 8.4483L48.263 8.09715ZM47.9541 8.95771C47.8043 9.20878 47.6228 9.41545 47.4084 9.58498L48.6491 11.1537C49.0598 10.8289 49.4009 10.4361 49.6716 9.98263L47.9541 8.95771ZM47.4128 9.58151C47.1945 9.75225 46.9471 9.88456 46.6641 9.9775L47.2883 11.8776C47.7837 11.7149 48.2381 11.475 48.6447 11.1571L47.4128 9.58151ZM46.6621 9.97818C46.385 10.0698 46.0785 10.1193 45.7362 10.1193V12.1193C46.2745 12.1193 46.7947 12.0409 47.2903 11.8769L46.6621 9.97818ZM45.7362 10.1193C45.1627 10.1193 44.6882 9.98176 44.2818 9.7268L43.2189 11.4209C43.9716 11.8932 44.821 12.1193 45.7362 12.1193V10.1193ZM44.2818 9.7268C43.8731 9.47035 43.5368 9.09969 43.2784 8.57855L41.4865 9.4669C41.8929 10.2867 42.4685 10.9501 43.2189 11.4209L44.2818 9.7268ZM43.2784 8.57855C43.0284 8.07427 42.8839 7.43751 42.8839 6.63636H40.8839C40.8839 7.67613 41.0717 8.63027 41.4865 9.4669L43.2784 8.57855ZM42.8839 6.63636C42.8839 5.83522 43.0284 5.19845 43.2784 4.69417L41.4865 3.80583C41.0717 4.64245 40.8839 5.5966 40.8839 6.63636H42.8839ZM43.2784 4.69417C43.5368 4.17304 43.8731 3.80237 44.2818 3.54593L43.2189 1.8518C42.4685 2.32263 41.8929 2.98605 41.4865 3.80583L43.2784 4.69417ZM44.2818 3.54593C44.6882 3.29096 45.1627 3.15341 45.7362 3.15341V1.15341C44.821 1.15341 43.9716 1.37949 43.2189 1.8518L44.2818 3.54593ZM45.7362 3.15341C46.0785 3.15341 46.385 3.20288 46.6621 3.29455L47.2903 1.39579C46.7947 1.23178 46.2745 1.15341 45.7362 1.15341V3.15341ZM46.6641 3.29523C46.9448 3.38743 47.1908 3.51984 47.4084 3.69201L48.6491 2.12334C48.2418 1.80118 47.786 1.55859 47.2883 1.39511L46.6641 3.29523ZM47.4128 3.69548C47.6248 3.86118 47.805 4.06503 47.9541 4.31501L49.6716 3.2901C49.4003 2.83553 49.0577 2.4428 48.6447 2.11986L47.4128 3.69548ZM47.956 4.31808C48.0961 4.55097 48.2022 4.83203 48.2629 5.1745L50.2322 4.8255C50.1338 4.27024 49.9501 3.753 49.6697 3.28704L47.956 4.31808ZM57.8203 9.02273L56.9244 8.57855L56.9244 8.57855L57.8203 9.02273ZM56.4524 10.5739L56.9839 11.4209L56.9839 11.4209L56.4524 10.5739ZM52.4808 10.5739L51.9493 11.4209L51.9493 11.4209L52.4808 10.5739ZM51.1129 9.02273L52.0089 8.57855L52.0089 8.57855L51.1129 9.02273ZM56.4524 2.69886L56.9839 1.8518L56.9839 1.8518L56.4524 2.69886ZM57.8203 4.25L56.9244 4.69417L56.9244 4.69417L57.8203 4.25ZM56.9169 4.72301L56.0157 5.15639L56.0176 5.16037L56.9169 4.72301ZM55.8984 3.54261L55.3674 4.38998L55.37 4.39156L55.8984 3.54261ZM53.0305 3.54261L52.5021 2.69367L52.4995 2.69525L53.0305 3.54261ZM52.0121 4.72301L51.1128 4.28565L51.1109 4.28964L52.0121 4.72301ZM52.0121 8.54972L51.1108 8.98309L51.1128 8.98707L52.0121 8.54972ZM53.0305 9.73011L52.4995 10.5775L52.5021 10.5791L53.0305 9.73011ZM55.8984 9.73011L55.37 8.88117L55.3674 8.88275L55.8984 9.73011ZM56.9169 8.54972L56.0176 8.11235L56.0157 8.11634L56.9169 8.54972ZM57.3189 6.63636C57.3189 7.43751 57.1744 8.07427 56.9244 8.57855L58.7163 9.4669C59.131 8.63027 59.3189 7.67613 59.3189 6.63636H57.3189ZM56.9244 8.57855C56.666 9.09969 56.3296 9.47035 55.9209 9.7268L56.9839 11.4209C57.7343 10.9501 58.3098 10.2867 58.7163 9.4669L56.9244 8.57855ZM55.9209 9.7268C55.5146 9.98176 55.0401 10.1193 54.4666 10.1193V12.1193C55.3818 12.1193 56.2312 11.8932 56.9839 11.4209L55.9209 9.7268ZM54.4666 10.1193C53.8932 10.1193 53.4187 9.98176 53.0123 9.7268L51.9493 11.4209C52.7021 11.8932 53.5514 12.1193 54.4666 12.1193V10.1193ZM53.0123 9.7268C52.6036 9.47035 52.2672 9.09969 52.0089 8.57855L50.217 9.4669C50.6234 10.2867 51.199 10.9501 51.9493 11.4209L53.0123 9.7268ZM52.0089 8.57855C51.7589 8.07427 51.6143 7.43751 51.6143 6.63636H49.6143C49.6143 7.67613 49.8022 8.63027 50.217 9.4669L52.0089 8.57855ZM51.6143 6.63636C51.6143 5.83522 51.7589 5.19845 52.0089 4.69417L50.217 3.80583C49.8022 4.64245 49.6143 5.5966 49.6143 6.63636H51.6143ZM52.0089 4.69417C52.2672 4.17304 52.6036 3.80237 53.0123 3.54593L51.9493 1.8518C51.199 2.32263 50.6234 2.98605 50.217 3.80583L52.0089 4.69417ZM53.0123 3.54593C53.4187 3.29096 53.8932 3.15341 54.4666 3.15341V1.15341C53.5514 1.15341 52.7021 1.37949 51.9493 1.8518L53.0123 3.54593ZM54.4666 3.15341C55.0401 3.15341 55.5146 3.29096 55.9209 3.54593L56.9839 1.8518C56.2312 1.37949 55.3818 1.15341 54.4666 1.15341V3.15341ZM55.9209 3.54593C56.3296 3.80237 56.666 4.17304 56.9244 4.69417L58.7163 3.80583C58.3098 2.98605 57.7343 2.32263 56.9839 1.8518L55.9209 3.54593ZM56.9244 4.69417C57.1744 5.19845 57.3189 5.83522 57.3189 6.63636H59.3189C59.3189 5.5966 59.131 4.64245 58.7163 3.80583L56.9244 4.69417ZM58.2962 6.63636C58.2962 5.77386 58.1524 4.97701 57.8162 4.28565L56.0176 5.16037C56.1871 5.50879 56.2962 5.9875 56.2962 6.63636H58.2962ZM57.8181 4.28964C57.4978 3.6235 57.039 3.07468 56.4269 2.69367L55.37 4.39156C55.6159 4.54463 55.836 4.78275 56.0157 5.15638L57.8181 4.28964ZM56.4295 2.69525C55.8359 2.32329 55.1729 2.14205 54.4666 2.14205V4.14205C54.8172 4.14205 55.1087 4.22784 55.3674 4.38998L56.4295 2.69525ZM54.4666 2.14205C53.7604 2.14205 53.0971 2.32327 52.5021 2.69367L53.559 4.39156C53.822 4.22787 54.1161 4.14205 54.4666 4.14205V2.14205ZM52.4995 2.69525C51.892 3.07595 51.435 3.62304 51.1128 4.28565L52.9114 5.16037C53.0948 4.78321 53.3168 4.54337 53.5616 4.38998L52.4995 2.69525ZM51.1109 4.28964C50.7789 4.97989 50.6371 5.77526 50.6371 6.63636H52.6371C52.6371 5.98611 52.7452 5.5059 52.9133 5.15638L51.1109 4.28964ZM50.6371 6.63636C50.6371 7.49747 50.7789 8.29283 51.1109 8.98309L52.9133 8.11634C52.7452 7.76683 52.6371 7.28662 52.6371 6.63636H50.6371ZM51.1128 8.98707C51.435 9.64969 51.892 10.1968 52.4995 10.5775L53.5616 8.88275C53.3168 8.72936 53.0948 8.48952 52.9114 8.11236L51.1128 8.98707ZM52.5021 10.5791C53.0971 10.9495 53.7604 11.1307 54.4666 11.1307V9.13068C54.1161 9.13068 53.822 9.04486 53.559 8.88117L52.5021 10.5791ZM54.4666 11.1307C55.1729 11.1307 55.8359 10.9494 56.4295 10.5775L55.3674 8.88275C55.1087 9.04488 54.8172 9.13068 54.4666 9.13068V11.1307ZM56.4269 10.5791C57.039 10.198 57.4978 9.64923 57.8181 8.98309L56.0157 8.11634C55.836 8.48998 55.6159 8.72809 55.37 8.88117L56.4269 10.5791ZM57.8162 8.98707C58.1524 8.29572 58.2962 7.49886 58.2962 6.63636H56.2962C56.2962 7.28523 56.1871 7.76394 56.0176 8.11236L57.8162 8.98707ZM59.4822 6.65341H58.4822V7.65341H59.4822V6.65341ZM59.4822 6.125V5.125H58.4822V6.125H59.4822ZM60.4751 5.8267L59.7527 5.13523L59.7476 5.14069L60.4751 5.8267ZM60.8714 2.44744L59.9053 2.18917L59.903 2.19814L60.8714 2.44744ZM61.2422 1.7358L60.5022 1.06312L60.5022 1.06312L61.2422 1.7358ZM61.924 1.31818L62.2288 2.27061L62.2288 2.27061L61.924 1.31818ZM62.9766 1.18182H63.9766V0.181818H62.9766V1.18182ZM62.9766 2.01705V3.01705H63.9766V2.01705H62.9766ZM62.1967 2.17045L61.7234 1.28954L61.7179 1.29256L62.1967 2.17045ZM61.7962 2.64773L60.8578 2.30201L60.8553 2.30901L61.7962 2.64773ZM61.5916 5.77557L60.6415 5.4638L60.6393 5.47053L60.6371 5.47729L61.5916 5.77557ZM61.272 6.24432L60.6305 5.47724L60.6305 5.47724L61.272 6.24432ZM60.603 6.54688L60.3649 5.57562L60.3627 5.57617L60.603 6.54688ZM62.9766 12.0909V13.0909H63.9766V12.0909H62.9766ZM61.924 11.9545L62.2288 11.0021L62.2288 11.0021L61.924 11.9545ZM61.2422 11.5369L60.5022 12.2096L60.5022 12.2096L61.2422 11.5369ZM60.8714 10.8253L59.903 11.0746L59.9054 11.0835L60.8714 10.8253ZM60.4751 7.44602L59.7475 8.13205L59.7527 8.13748L60.4751 7.44602ZM59.4822 7.14773H58.4822V8.14773H59.4822V7.14773ZM59.4822 6.61932V5.61932H58.4822V6.61932H59.4822ZM60.603 6.72585L60.3627 7.69656L60.3649 7.6971L60.603 6.72585ZM61.272 7.02841L60.6305 7.79549L60.6305 7.79549L61.272 7.02841ZM61.5916 7.49716L60.6371 7.79543L60.6393 7.8022L60.6415 7.80893L61.5916 7.49716ZM61.7962 10.625L60.8552 10.9637L60.8593 10.9748L61.7962 10.625ZM62.1967 11.098L62.6802 10.2226L62.6756 10.2201L62.1967 11.098ZM62.9766 11.2557H63.9766V10.2557H62.9766V11.2557ZM59.4822 7.14773H58.4822V8.14773H59.4822V7.14773ZM59.4822 6.125V5.125H58.4822V6.125H59.4822ZM60.4879 6.125H61.4879V5.125H60.4879V6.125ZM60.4879 7.14773V8.14773H61.4879V7.14773H60.4879ZM60.4822 6.65341V6.125H58.4822V6.65341H60.4822ZM59.4822 7.125C60.0422 7.125 60.7268 7.01747 61.2027 6.51272L59.7476 5.14069C59.8019 5.08303 59.8398 5.08031 59.7986 5.09271C59.7539 5.10614 59.6556 5.125 59.4822 5.125V7.125ZM61.1976 6.51816C61.655 6.04024 61.7607 5.3866 61.7607 4.82955H59.7607C59.7607 4.99943 59.7427 5.10122 59.7279 5.153C59.7138 5.20225 59.7105 5.17933 59.7527 5.13525L61.1976 6.51816ZM61.7607 4.82955V3.46591H59.7607V4.82955H61.7607ZM61.7607 3.46591C61.7607 3.13264 61.7925 2.8809 61.8399 2.69674L59.903 2.19814C59.8027 2.58785 59.7607 3.01509 59.7607 3.46591H61.7607ZM61.8375 2.7057C61.8801 2.54646 61.9361 2.45909 61.9821 2.40847L60.5022 1.06312C60.2074 1.3875 60.0162 1.77456 59.9054 2.18919L61.8375 2.7057ZM61.9821 2.40847C62.0152 2.37211 62.082 2.31758 62.2288 2.27061L61.6192 0.365758C61.1979 0.500597 60.8101 0.724476 60.5022 1.06312L61.9821 2.40847ZM62.2288 2.27061C62.3837 2.22103 62.6244 2.18182 62.9766 2.18182V0.181818C62.4935 0.181818 62.0325 0.233515 61.6192 0.365758L62.2288 2.27061ZM61.9766 1.18182V2.01705H63.9766V1.18182H61.9766ZM62.9766 1.01705C62.5611 1.01705 62.116 1.07863 61.7234 1.28956L62.67 3.05135C62.6601 3.0567 62.6742 3.04708 62.7275 3.03659C62.7807 3.02612 62.8616 3.01705 62.9766 3.01705V1.01705ZM61.7179 1.29256C61.3007 1.52012 61.0141 1.87797 60.8578 2.30202L62.7345 2.99343C62.7387 2.98212 62.7369 2.99151 62.7219 3.00935C62.7149 3.01776 62.7066 3.02597 62.6976 3.0333C62.6886 3.04058 62.6809 3.04547 62.6756 3.04835L61.7179 1.29256ZM60.8553 2.30901C60.7257 2.66884 60.6811 3.06704 60.6811 3.46591H62.6811C62.6811 3.2 62.7132 3.05275 62.7371 2.98645L60.8553 2.30901ZM60.6811 3.46591V5.17045H62.6811V3.46591H60.6811ZM60.6811 5.17045C60.6811 5.30252 60.6634 5.39707 60.6415 5.4638L62.5418 6.08734C62.6392 5.79043 62.6811 5.48157 62.6811 5.17045H60.6811ZM60.6371 5.47729C60.6374 5.47657 60.638 5.47466 60.6393 5.47207C60.6405 5.46947 60.6419 5.46728 60.6429 5.46578C60.6439 5.46431 60.644 5.46443 60.6424 5.46612C60.6408 5.46785 60.6371 5.47165 60.6305 5.47724L61.9136 7.01139C62.2063 6.7666 62.4281 6.45153 62.5461 6.07384L60.6371 5.47729ZM60.6305 5.47724C60.6343 5.47405 60.6204 5.48651 60.5755 5.50681C60.5306 5.52711 60.4625 5.5517 60.3649 5.57562L60.841 7.51813C61.2155 7.42634 61.5986 7.27483 61.9136 7.01139L60.6305 5.47724ZM60.3627 5.57617C60.1852 5.6201 59.901 5.65341 59.4822 5.65341V7.65341C59.9839 7.65341 60.4469 7.6157 60.8433 7.51758L60.3627 5.57617ZM62.9766 11.0909C62.6244 11.0909 62.3837 11.0517 62.2288 11.0021L61.6192 12.907C62.0325 13.0392 62.4935 13.0909 62.9766 13.0909V11.0909ZM62.2288 11.0021C62.082 10.9551 62.0152 10.9006 61.9821 10.8643L60.5022 12.2096C60.8101 12.5483 61.1979 12.7721 61.6192 12.907L62.2288 11.0021ZM61.9821 10.8643C61.9361 10.8136 61.8801 10.7263 61.8375 10.567L59.9054 11.0835C60.0162 11.4982 60.2074 11.8852 60.5022 12.2096L61.9821 10.8643ZM61.8399 10.576C61.7925 10.3918 61.7607 10.1401 61.7607 9.80682H59.7607C59.7607 10.2576 59.8027 10.6849 59.903 11.0746L61.8399 10.576ZM61.7607 9.80682V8.44318H59.7607V9.80682H61.7607ZM61.7607 8.44318C61.7607 7.88613 61.655 7.23248 61.1976 6.75457L59.7527 8.13748C59.7105 8.09339 59.7138 8.07048 59.7279 8.11972C59.7427 8.17151 59.7607 8.27329 59.7607 8.44318H61.7607ZM61.2027 6.76001C60.7268 6.25526 60.0422 6.14773 59.4822 6.14773V8.14773C59.6556 8.14773 59.7539 8.16659 59.7986 8.18001C59.8398 8.19241 59.8019 8.18969 59.7476 8.13204L61.2027 6.76001ZM60.4822 7.14773V6.61932H58.4822V7.14773H60.4822ZM59.4822 7.61932C59.901 7.61932 60.1852 7.65263 60.3627 7.69656L60.8433 5.75515C60.4469 5.65703 59.9839 5.61932 59.4822 5.61932V7.61932ZM60.3649 7.6971C60.4625 7.72103 60.5306 7.74561 60.5755 7.76592C60.6204 7.78621 60.6343 7.79868 60.6305 7.79549L61.9136 6.26133C61.5986 5.9979 61.2155 5.84639 60.841 5.7546L60.3649 7.6971ZM60.6305 7.79549C60.6371 7.80108 60.6408 7.80488 60.6424 7.80661C60.644 7.80829 60.6439 7.80842 60.6429 7.80694C60.6419 7.80544 60.6405 7.80326 60.6393 7.80066C60.638 7.79806 60.6374 7.79615 60.6371 7.79543L62.5461 7.19888C62.4281 6.82119 62.2063 6.50612 61.9136 6.26133L60.6305 7.79549ZM60.6415 7.80893C60.6634 7.87565 60.6811 7.97021 60.6811 8.10227H62.6811C62.6811 7.79116 62.6392 7.4823 62.5418 7.18539L60.6415 7.80893ZM60.6811 8.10227V9.80682H62.6811V8.10227H60.6811ZM60.6811 9.80682C60.6811 10.2057 60.7257 10.6039 60.8553 10.9637L62.7371 10.2863C62.7132 10.22 62.6811 10.0727 62.6811 9.80682H60.6811ZM60.8593 10.9748C61.0171 11.3974 61.3047 11.7506 61.7179 11.9759L62.6756 10.2201C62.6863 10.226 62.7035 10.2384 62.7191 10.2568C62.7341 10.2745 62.7365 10.2845 62.733 10.2752L60.8593 10.9748ZM61.7133 11.9734C62.1087 12.1918 62.558 12.2557 62.9766 12.2557V10.2557C62.8631 10.2557 62.7839 10.2465 62.7326 10.2361C62.6814 10.2257 62.6691 10.2165 62.6802 10.2226L61.7133 11.9734ZM61.9766 11.2557V12.0909H63.9766V11.2557H61.9766ZM60.4822 7.14773V6.125H58.4822V7.14773H60.4822ZM59.4822 7.125H60.4879V5.125H59.4822V7.125ZM59.4879 6.125V7.14773H61.4879V6.125H59.4879ZM60.4879 6.14773H59.4822V8.14773H60.4879V6.14773ZM69.408 9.60227L68.4532 9.30502L68.4526 9.30692L69.408 9.60227ZM68.2106 12.0909V13.0909H68.7375L69.0354 12.6563L68.2106 12.0909ZM67.3242 12.0909L66.5155 11.5027L65.3604 13.0909H67.3242V12.0909ZM67.8952 11.0511L66.9791 10.6503L66.9758 10.658L67.8952 11.0511ZM68.364 9.70455L69.3286 9.96814L69.329 9.96672L68.364 9.70455ZM68.6751 8.18324L67.6855 8.03882L67.6849 8.04332L68.6751 8.18324ZM68.5941 4.57812L69.5769 4.39359L69.5769 4.39359L68.5941 4.57812ZM68.0657 2.6392L69.0031 2.29102L69.0031 2.29102L68.0657 2.6392ZM67.3242 1.18182V0.181818H65.3605L66.5155 1.76999L67.3242 1.18182ZM68.2106 1.18182L69.0354 0.616469L68.7375 0.181818H68.2106V1.18182ZM69.408 3.67472L68.4524 3.96923L68.4535 3.97282L69.408 3.67472ZM68.8299 6.63636C68.8299 7.6228 68.7008 8.50984 68.4532 9.30502L70.3628 9.89952C70.6778 8.88789 70.8299 7.79765 70.8299 6.63636H68.8299ZM68.4526 9.30692C68.2032 10.1139 67.8474 10.852 67.3857 11.5256L69.0354 12.6563C69.6136 11.8127 70.0561 10.8918 70.3634 9.89763L68.4526 9.30692ZM68.2106 11.0909H67.3242V13.0909H68.2106V11.0909ZM68.133 12.6791C68.3921 12.3227 68.6171 11.9065 68.8147 11.4443L66.9758 10.658C66.8211 11.0196 66.6654 11.2966 66.5155 11.5027L68.133 12.6791ZM68.8114 11.452C69.0122 10.9929 69.184 10.4975 69.3286 9.96814L67.3994 9.44095C67.277 9.88884 67.1362 10.2912 66.9791 10.6503L68.8114 11.452ZM69.329 9.96672C69.4738 9.43362 69.5858 8.88562 69.6652 8.32315L67.6849 8.04332C67.6167 8.52631 67.5212 8.99252 67.399 9.44237L69.329 9.96672ZM69.6646 8.32765C69.7479 7.75665 69.7901 7.19273 69.7901 6.63636H67.7901C67.7901 7.09136 67.7556 7.55869 67.6856 8.03882L69.6646 8.32765ZM69.7901 6.63636C69.7901 5.89547 69.7185 5.14759 69.5769 4.39359L67.6113 4.76266C67.7311 5.4007 67.7901 6.02499 67.7901 6.63636H69.7901ZM69.5769 4.39359C69.4369 3.64797 69.2465 2.94633 69.0031 2.29102L67.1283 2.98739C67.3281 3.52526 67.4899 4.11623 67.6113 4.76266L69.5769 4.39359ZM69.0031 2.29102C68.7607 1.63829 68.4751 1.06404 68.133 0.593646L66.5155 1.76999C66.7188 2.0496 66.9275 2.44693 67.1283 2.98739L69.0031 2.29102ZM67.3242 2.18182H68.2106V0.181818H67.3242V2.18182ZM67.3857 1.74717C67.847 2.4202 68.2028 3.15945 68.4524 3.96922L70.3637 3.38021C70.0564 2.38317 69.6139 1.46048 69.0354 0.616469L67.3857 1.74717ZM68.4535 3.97282C68.7008 4.76461 68.8299 5.64987 68.8299 6.63636H70.8299C70.8299 5.47513 70.6778 4.38596 70.3626 3.37661L68.4535 3.97282ZM72.1662 11H71.1662V12H72.1662V11ZM72.1662 2.27273V1.27273H71.1662V2.27273H72.1662ZM77.4332 2.27273H78.4332V1.27273H77.4332V2.27273ZM77.4332 3.21023V4.21023H78.4332V3.21023H77.4332ZM73.223 3.21023V2.21023H72.223V3.21023H73.223ZM73.223 6.15909H72.223V7.15909H73.223V6.15909ZM77.1605 6.15909H78.1605V5.15909H77.1605V6.15909ZM77.1605 7.09659V8.09659H78.1605V7.09659H77.1605ZM73.223 7.09659V6.09659H72.223V7.09659H73.223ZM73.223 10.0625H72.223V11.0625H73.223V10.0625ZM77.5014 10.0625H78.5014V9.0625H77.5014V10.0625ZM77.5014 11V12H78.5014V11H77.5014ZM73.1662 11V2.27273H71.1662V11H73.1662ZM72.1662 3.27273H77.4332V1.27273H72.1662V3.27273ZM76.4332 2.27273V3.21023H78.4332V2.27273H76.4332ZM77.4332 2.21023H73.223V4.21023H77.4332V2.21023ZM72.223 3.21023V6.15909H74.223V3.21023H72.223ZM73.223 7.15909H77.1605V5.15909H73.223V7.15909ZM76.1605 6.15909V7.09659H78.1605V6.15909H76.1605ZM77.1605 6.09659H73.223V8.09659H77.1605V6.09659ZM72.223 7.09659V10.0625H74.223V7.09659H72.223ZM73.223 11.0625H77.5014V9.0625H73.223V11.0625ZM76.5014 10.0625V11H78.5014V10.0625H76.5014ZM77.5014 10H72.1662V12H77.5014V10Z" fill="black" mask="url(#path-1-outside-1_2311_3)"/>
</svg>
